<?xml version="1.0" encoding="UTF-8" standalone="no"?>
<!-- Generator: Adobe Illustrator 16.0.0, SVG Export Plug-In . SVG Version: 6.00 Build 0)  -->

<svg
   xmlns:dc="http://purl.org/dc/elements/1.1/"
   xmlns:cc="http://creativecommons.org/ns#"
   xmlns:rdf="http://www.w3.org/1999/02/22-rdf-syntax-ns#"
   xmlns:svg="http://www.w3.org/2000/svg"
   xmlns="http://www.w3.org/2000/svg"
   xmlns:sodipodi="http://sodipodi.sourceforge.net/DTD/sodipodi-0.dtd"
   xmlns:inkscape="http://www.inkscape.org/namespaces/inkscape"
   version="1.1"
   id="Capa_1"
   x="0px"
   y="0px"
   width="190.76401"
   height="222.769"
   viewBox="0 0 190.76401 222.769"
   enable-background="new 0 0 792 612"
   xml:space="preserve"
   inkscape:version="0.48.2 r9819"
   sodipodi:docname="Symbol from Marvel's The Avengers logo.svg"><metadata
   id="metadata11"><rdf:RDF><cc:Work
       rdf:about=""><dc:format>image/svg+xml</dc:format><dc:type
         rdf:resource="http://purl.org/dc/dcmitype/StillImage" /></cc:Work></rdf:RDF></metadata><defs
   id="defs9" /><sodipodi:namedview
   pagecolor="#ffffff"
   bordercolor="#666666"
   borderopacity="1"
   objecttolerance="10"
   gridtolerance="10"
   guidetolerance="10"
   inkscape:pageopacity="0"
   inkscape:pageshadow="2"
   inkscape:window-width="1600"
   inkscape:window-height="837"
   id="namedview7"
   showgrid="false"
   fit-margin-top="0"
   fit-margin-left="0"
   fit-margin-right="0"
   fit-margin-bottom="0"
   inkscape:zoom="0.38562092"
   inkscape:cx="94.766"
   inkscape:cy="111.736"
   inkscape:window-x="-8"
   inkscape:window-y="-8"
   inkscape:window-maximized="1"
   inkscape:current-layer="Capa_1" />
<path
   d="m 91.256,43.595 c -42.332,2.172 -75.995,37.577 -75.995,80.931 0,14.627 3.832,28.349 10.535,40.195 l -8.118,15.765 C 6.548,164.704 0,145.388 0,124.526 0,71.248 42.704,28.053 95.382,28.053 c 0.753,0 1.504,0.009 2.252,0.026 L 111.412,0 h 29.434 v 39.696 c 29.733,16.337 49.918,48.2 49.918,84.829 0,53.279 -42.704,96.473 -95.382,96.473 -16.079,0 -31.229,-4.024 -44.519,-11.132 l 6.712,-13.875 c 11.262,6.107 24.134,9.571 37.807,9.571 44.249,0 80.121,-36.282 80.121,-81.037 0,-27.971 -14.013,-52.633 -35.325,-67.197 v 76.695 L 113.281,108.581 V 50.453 l -33.218,78.891 h 33.218 V 116.68 l 31.141,29.274 -32.179,24.705 V 157.58 H 68.437 L 39.582,222.769 3.874,222.07 91.256,43.595 z"
   id="path3"
   inkscape:connector-curvature="0" />
<polygon
   points="413.444,374.604 441.359,350.69 441.359,374.604 "
   id="polygon5"
   transform="translate(-301.234,-194.967)" />
</svg>