<?xml version="1.0" encoding="UTF-8" standalone="no"?>
<svg
   xmlns:dc="http://purl.org/dc/elements/1.1/"
   xmlns:cc="http://creativecommons.org/ns#"
   xmlns:rdf="http://www.w3.org/1999/02/22-rdf-syntax-ns#"
   xmlns:svg="http://www.w3.org/2000/svg"
   xmlns="http://www.w3.org/2000/svg"
   xmlns:sodipodi="http://sodipodi.sourceforge.net/DTD/sodipodi-0.dtd"
   xmlns:inkscape="http://www.inkscape.org/namespaces/inkscape"
   version="1.0"
   x="0px"
   y="0px"
   width="434.58484"
   height="833.37616"
   xml:space="preserve"
   id="svg6"
   sodipodi:docname="Tardis.svg"
   inkscape:version="0.92.2 5c3e80d, 2017-08-06"><metadata
     id="metadata12"><rdf:RDF><cc:Work
         rdf:about=""><dc:format>image/svg+xml</dc:format><dc:type
           rdf:resource="http://purl.org/dc/dcmitype/StillImage" /><dc:title></dc:title></cc:Work></rdf:RDF></metadata><defs
     id="defs10" /><sodipodi:namedview
     pagecolor="#ffffff"
     bordercolor="#666666"
     borderopacity="1"
     objecttolerance="10"
     gridtolerance="10"
     guidetolerance="10"
     inkscape:pageopacity="0"
     inkscape:pageshadow="2"
     inkscape:window-width="1226"
     inkscape:window-height="908"
     id="namedview8"
     showgrid="false"
     fit-margin-top="0"
     fit-margin-left="0"
     fit-margin-right="0"
     fit-margin-bottom="0"
     inkscape:zoom="0.81944444"
     inkscape:cx="247.4294"
     inkscape:cy="405.0426"
     inkscape:window-x="0"
     inkscape:window-y="0"
     inkscape:window-maximized="0"
     inkscape:current-layer="tardis_stencil_doctor_who_party_ideas_silhouette_outline_drawing.jpg" /><g
     id="dalek.jpg_(Break)"
     transform="translate(-190.505,-9.6008639)" /><g
     id="tardis_stencil_doctor_who_party_ideas_silhouette_outline_drawing.jpg"
     transform="translate(-190.505,-9.6008639)"><path
       style="fill:#000000;stroke:#000000"
       d="m 400.575,12.1343 c -2.382,1.1345 -5.499,2.2799 -6.928,2.5461 -4.497,0.8377 -4.47,0.7291 -4.29,17.2695 0.087,8.0053 -0.075,15.1682 -0.36,15.9175 -0.463,1.2193 -0.876,1.3625 -3.925,1.3625 -4.312,0 -4.787,0.5542 -4.609,5.3703 0.087,2.352 -0.132,4.0817 -0.584,4.6273 -0.659,0.7944 -3.323,1.3746 -8.538,1.859 -1.074,0.0999 -2.795,0.4382 -3.824,0.7522 -1.029,0.3141 -3.689,0.8649 -5.912,1.224 -2.222,0.3591 -4.69,0.7846 -5.484,0.9456 -7.12,1.4428 -14.131,2.725 -20.075,3.6707 -3.896,0.62 -7.334,1.2816 -7.639,1.4704 -0.306,0.1888 -2.963,0.6062 -5.906,0.9278 -2.942,0.3216 -6.779,0.9347 -8.525,1.3625 -1.747,0.4278 -4.994,0.9578 -7.217,1.1783 -2.222,0.22 -5.08,0.7367 -6.35,1.1472 -1.27,0.411 -3.479,0.8954 -4.908,1.0772 -1.429,0.1819 -3.767,0.6039 -5.196,0.9382 -1.428,0.3343 -3.637,0.7465 -4.907,0.9162 -3.501,0.4671 -15.06,2.5149 -19.743,3.4986 -2.286,0.4798 -6.443,1.0906 -9.238,1.3573 -2.794,0.2667 -5.747,0.7425 -6.562,1.0577 -0.815,0.3146 -3.023,0.7488 -4.907,0.9641 -1.885,0.2154 -4.985,0.7453 -6.891,1.1778 -1.905,0.4324 -5.801,1.079 -8.657,1.4358 -2.857,0.3573 -6.04,1.0507 -7.073,1.5409 l -1.878,0.8914 v 12.0236 c 0,8.01 -0.209,12.154 -0.625,12.411 -0.344,0.213 -3.137,0.392 -6.207,0.398 -8.862,0.019 -8.128,-1.152 -8.311,13.265 l -0.156,12.287 -6.928,0.288 -6.928,0.289 v 27.712 27.712 l 6.316,0.165 c 3.474,0.09 6.657,0.447 7.073,0.792 1.093,0.907 1.127,611.751 0.034,613.167 -0.815,1.056 -8.409,6.213 -9.15,6.213 -0.264,0 -1.399,0.806 -2.522,1.792 l -2.04,1.792 v 11.082 c 0,7.85 0.202,11.285 0.692,11.775 0.537,0.537 49.198,0.693 215.503,0.693 193.486,0 214.938,-0.089 216.094,-0.899 1.249,-0.874 1.283,-1.191 1.283,-11.745 0,-12.431 0.457,-11.308 -6.062,-14.902 -6.33,-3.49 -7.851,-4.412 -9.329,-5.65 l -1.377,-1.155 0.015,-305.95 c 0.011,-243.753 0.16,-306.044 0.734,-306.408 0.396,-0.252 4.005,-0.461 8.019,-0.466 6.118,-0.007 7.356,-0.156 7.65,-0.922 0.193,-0.502 0.35,-12.79 0.35,-27.307 0,-19.759 -0.174,-26.569 -0.693,-27.087 -0.466,-0.467 -3.097,-0.693 -8.048,-0.693 -4.303,0 -7.505,-0.241 -7.714,-0.58 -0.197,-0.318 -0.395,-5.931 -0.44,-12.471 l -0.081,-11.891 -1.393,-0.53 c -0.766,-0.291 -3.285,-0.493 -5.597,-0.448 -2.313,0.045 -4.491,-0.096 -4.841,-0.312 -0.43,-0.266 -0.637,-4.273 -0.637,-12.376 V 88.7018 l -1.966,-0.9382 c -1.082,-0.5161 -4.135,-1.2112 -6.784,-1.5449 -2.649,-0.3337 -6.635,-0.9803 -8.858,-1.437 -9.92,-2.0385 -14.751,-2.8583 -19.085,-3.2394 -2.559,-0.2251 -6.586,-0.818 -8.949,-1.318 -2.363,-0.5 -6.115,-1.2009 -8.338,-1.5571 -2.222,-0.3562 -5.21,-0.8769 -6.639,-1.1569 -5.196,-1.0179 -13.057,-2.4583 -15.876,-2.9092 -3.928,-0.6281 -12.301,-2.1032 -17.897,-3.1539 -2.541,-0.4769 -7.217,-1.2748 -10.392,-1.773 -13.024,-2.0443 -19.36,-3.1222 -25.114,-4.2728 -3.334,-0.6668 -8.333,-1.5888 -11.11,-2.0495 -2.776,-0.4601 -6.153,-1.1229 -7.505,-1.4722 -1.351,-0.3493 -4.644,-0.8625 -7.318,-1.1408 -2.673,-0.2782 -5.123,-0.7678 -5.443,-1.0882 -0.32,-0.3205 -0.533,-2.441 -0.472,-4.7122 0.065,-2.4005 -0.164,-4.4604 -0.545,-4.92 -0.427,-0.5149 -1.915,-0.7903 -4.267,-0.7903 -2.4,0 -3.838,-0.2725 -4.286,-0.8123 -0.478,-0.5762 -0.659,-5.0661 -0.62,-15.4435 0.029,-8.0474 0.041,-14.9597 0.026,-15.3615 -0.037,-0.9769 -3.456,-3.0177 -5.061,-3.0206 -1.219,-0.0023 -3.624,-1.0086 -8.359,-3.498 -2.933,-1.54207 -4.67,-1.35559 -9.701,1.0403 z m 12.162,10.5588 c 1.04,0.5565 1.116,1.3053 1.116,10.8988 0,8.8816 -0.131,10.4097 -0.955,11.0933 -1.123,0.9312 -12.085,0.8429 -13.228,-0.1062 -0.902,-0.7482 -1.112,-19.7169 -0.237,-21.3519 0.539,-1.008 1.236,-1.131 6.396,-1.131 3.185,0 6.294,0.2691 6.908,0.5976 z m 186.6,123.5029 c 0.248,0.223 0.458,9.712 0.469,21.087 0.014,16.453 -0.136,20.78 -0.739,21.162 -0.417,0.265 -86.75,0.42 -191.853,0.345 l -191.095,-0.136 -0.289,-20.376 c -0.159,-11.206 -0.133,-20.819 0.059,-21.361 0.325,-0.925 11.776,-1.003 188.497,-1.274 103.483,-0.159 189.579,-0.191 191.325,-0.071 1.747,0.119 3.378,0.4 3.626,0.623 z m -320.54,64.706 c 1.08,0.578 1.117,1.492 1.117,27.402 0,25.911 -0.038,26.825 -1.117,27.403 -1.662,0.89 -28.469,0.803 -29.366,-0.095 -0.519,-0.519 -0.693,-7.445 -0.693,-27.615 0,-14.808 0.173,-27.096 0.385,-27.308 0.647,-0.646 28.441,-0.447 29.674,0.213 z m 40.837,0.095 c 0.997,0.998 0.997,53.617 0,54.615 -0.86,0.86 -28.494,0.999 -29.021,0.146 -0.461,-0.745 -0.488,-54.117 -0.029,-54.861 0.554,-0.896 28.148,-0.801 29.05,0.1 z m 41.567,0 c 0.519,0.518 0.693,7.329 0.693,27.093 0,23.231 -0.109,26.509 -0.907,27.308 -0.774,0.773 -2.922,0.907 -14.606,0.907 -9.885,0 -13.893,-0.193 -14.393,-0.693 -0.997,-0.998 -0.997,-53.617 0,-54.615 0.501,-0.501 4.555,-0.693 14.607,-0.693 10.052,0 14.106,0.192 14.606,0.693 z m 49.696,0.089 c 0.479,0.577 0.611,77.855 0.503,294.581 l -0.145,293.799 h -3.464 -3.464 l -0.144,-293.799 c -0.107,-216.726 0.025,-294.004 0.503,-294.581 0.36,-0.433 1.744,-0.782 3.105,-0.782 1.362,0 2.746,0.349 3.106,0.782 z m 73.857,-0.285 c 0.605,0.383 0.745,5.797 0.706,27.256 -0.032,17.38 -0.256,26.986 -0.638,27.369 -0.714,0.715 -28.774,1.116 -29.823,0.426 -0.546,-0.359 -0.719,-6.739 -0.743,-27.451 -0.017,-14.84 0.123,-27.233 0.312,-27.539 0.425,-0.688 29.107,-0.745 30.186,-0.061 z m 40.409,0.196 c 0.997,0.998 0.997,53.617 0,54.615 -0.985,0.984 -28.229,0.984 -29.213,0 -0.519,-0.518 -0.693,-7.328 -0.693,-27.087 0,-14.517 0.158,-26.805 0.351,-27.308 0.306,-0.798 2.139,-0.913 14.606,-0.913 10.318,0 14.447,0.191 14.949,0.693 z m 41.544,26.981 c 0.118,21.526 -0.006,27.485 -0.577,27.848 -1.046,0.664 -27.211,0.588 -28.979,-0.084 l -1.481,-0.563 v -26.831 c 0,-24.942 0.071,-26.873 1.01,-27.426 0.637,-0.374 6.349,-0.545 15.444,-0.461 l 14.433,0.132 z m -287.706,37.337 c 0.814,0.313 0.913,3.27 0.913,27.438 v 27.087 l -1.481,0.563 c -2.237,0.85 -28.137,0.735 -29.002,-0.13 -0.519,-0.519 -0.693,-7.446 -0.693,-27.616 0,-14.807 0.174,-27.095 0.386,-27.307 0.48,-0.481 28.629,-0.513 29.877,-0.035 z m 40.633,0.343 c 0.998,0.997 0.998,53.617 0,54.615 -0.805,0.805 -27.38,0.996 -28.625,0.205 -0.585,-0.371 -0.743,-6.132 -0.75,-27.425 -0.004,-14.825 0.149,-27.21 0.342,-27.521 0.539,-0.871 28.156,-0.751 29.033,0.126 z m 41.568,0 c 0.997,0.997 0.997,53.617 0,54.615 -0.985,0.984 -28.229,0.984 -29.213,0 -0.998,-0.998 -0.998,-53.618 0,-54.615 0.501,-0.501 4.555,-0.693 14.606,-0.693 10.052,0 14.106,0.192 14.607,0.693 z m 122.393,0 c 0.998,0.997 0.998,53.617 0,54.615 -0.897,0.897 -27.128,0.983 -28.789,0.095 -1.08,-0.578 -1.116,-1.491 -1.116,-27.308 0,-20.004 0.173,-26.883 0.692,-27.402 0.501,-0.501 4.555,-0.693 14.607,-0.693 10.052,0 14.106,0.192 14.606,0.693 z m 41.403,-0.101 c 0.201,0.325 0.345,12.715 0.321,27.534 -0.035,20.84 -0.208,27.05 -0.764,27.416 -0.835,0.549 -29.019,0.355 -29.576,-0.203 -0.493,-0.494 -0.53,-53.922 -0.037,-54.72 0.517,-0.835 29.541,-0.862 30.056,-0.027 z m 39.78,-0.242 c 0.814,0.313 0.913,3.27 0.913,27.438 v 27.087 l -1.481,0.563 c -2.237,0.85 -28.138,0.735 -29.002,-0.13 -0.998,-0.998 -0.998,-53.618 0,-54.615 0.501,-0.501 4.57,-0.693 14.675,-0.693 7.69,0 14.392,0.157 14.895,0.35 z m 3.449,81.966 c 0.575,1.499 0.388,128.61 -0.19,129.524 -0.448,0.708 -8.733,0.837 -57.58,0.894 -31.381,0.036 -57.381,-0.039 -57.778,-0.168 -0.571,-0.184 -0.721,-13.759 -0.721,-65.313 0,-35.794 0.173,-65.253 0.385,-65.465 0.212,-0.212 26.293,-0.385 57.959,-0.385 51.968,0 57.609,0.089 57.925,0.913 z m -213.376,4.398 c 0.53,0.53 0.693,14.583 0.693,59.733 0,57.781 -0.024,59.053 -1.117,59.638 -0.744,0.399 -17.286,0.598 -49.609,0.598 -43.897,0 -48.581,-0.089 -49.426,-0.934 -0.849,-0.848 -0.926,-6.252 -0.85,-59.48 0.072,-50.723 0.197,-58.66 0.933,-59.397 0.736,-0.736 7.45,-0.851 49.767,-0.851 37.276,0 49.081,0.166 49.609,0.693 z m 8.157,151.383 c 0.803,0.969 0.903,128.911 0.101,129.878 -0.395,0.475 -15.922,0.571 -58.176,0.359 l -57.637,-0.288 -0.147,-64.823 -0.147,-64.823 1.302,-0.531 c 0.761,-0.311 24.71,-0.53 57.69,-0.528 45.632,0.002 56.508,0.147 57.014,0.755 z m 204.142,-0.233 1.428,0.543 v 64.271 c 0,49.219 -0.162,64.433 -0.693,64.964 -0.873,0.873 -115.081,1.018 -115.619,0.146 -0.664,-1.075 -0.332,-128.917 0.338,-129.723 0.515,-0.62 11.039,-0.76 56.876,-0.752 33.684,0.005 56.816,0.226 57.671,0.551 z M 362.918,668.608 c 0.587,0.372 0.732,13.473 0.724,65.341 -0.005,35.682 -0.22,65.087 -0.477,65.344 -0.257,0.256 -26.433,0.401 -58.168,0.32 l -57.701,-0.147 -0.147,-65.112 -0.147,-65.111 1.302,-0.523 c 1.621,-0.652 113.592,-0.762 114.614,-0.113 z m 204.543,0.113 c 1.094,0.586 1.117,1.92 1.117,65.123 0,49.416 -0.163,64.687 -0.693,65.218 -0.841,0.84 -115.079,1.02 -115.598,0.181 -0.174,-0.281 -0.325,-29.683 -0.337,-65.339 -0.017,-51.934 0.125,-64.921 0.715,-65.295 1.133,-0.72 113.447,-0.609 114.796,0.112 z m -161.402,-519.615 -186.476,0.29 -0.154,17.031 c -0.139,15.499 -0.065,17.096 0.832,17.753 1.414,1.035 373.145,1.064 374.18,0.029 0.508,-0.508 0.693,-5.217 0.693,-17.588 0,-16.114 -0.052,-16.923 -1.116,-17.493 -0.615,-0.329 -1.199,-0.534 -1.299,-0.455 -0.101,0.079 -84.097,0.274 -186.66,0.433 z m 53.455,211.529 c -1.025,1.235 -0.952,121.606 0.074,122.257 0.407,0.259 23.129,0.474 50.493,0.479 45.039,0.008 49.842,-0.08 50.686,-0.924 0.847,-0.848 0.925,-6.392 0.857,-60.764 -0.067,-53.456 -0.172,-59.939 -0.981,-60.841 -0.849,-0.948 -4.005,-1.011 -50.684,-1.011 -41.833,0 -49.885,0.128 -50.445,0.804 z M 254.049,517.558 c -0.869,0.869 -1.019,121.43 -0.151,121.967 0.577,0.356 102.281,0.445 102.637,0.089 0.348,-0.348 0.191,-121.66 -0.158,-122.225 -0.525,-0.85 -101.474,-0.684 -102.327,0.169 z M 459.2,517.401 c -0.182,0.294 -0.335,27.618 -0.339,60.719 -0.007,48.224 0.139,60.277 0.729,60.653 0.406,0.257 23.131,0.472 50.5,0.476 l 49.761,0.009 0.87,-1.241 c 0.76,-1.085 0.874,-8.677 0.912,-60.276 0.039,-53.302 -0.047,-59.124 -0.878,-59.955 -0.829,-0.829 -5.937,-0.921 -51.073,-0.921 -30.213,0 -50.284,0.213 -50.483,0.536 z M 253.642,673.465 c -0.172,0.714 -0.242,28.318 -0.155,61.341 l 0.159,60.042 51.061,0.147 c 28.084,0.081 51.278,-0.069 51.542,-0.333 0.544,-0.543 0.697,-121.053 0.155,-121.929 -0.225,-0.365 -18.601,-0.567 -51.399,-0.567 h -51.048 l -0.314,1.299 z m 205.542,-0.161 c -0.449,0.725 -0.441,121.135 0.007,121.861 0.211,0.34 19.492,0.549 50.75,0.549 42.385,0 50.518,-0.128 51.079,-0.805 0.497,-0.598 0.652,-16.127 0.605,-60.621 -0.055,-52.273 -0.172,-59.927 -0.927,-60.681 -0.753,-0.754 -7.266,-0.864 -51.016,-0.864 -31.823,0 -50.279,0.205 -50.499,0.561 z"
       id="path3"
       inkscape:connector-curvature="0" /></g></svg>