<?xml version="1.0" encoding="UTF-8" standalone="no"?>
<svg
   xmlns:dc="http://purl.org/dc/elements/1.1/"
   xmlns:cc="http://creativecommons.org/ns#"
   xmlns:rdf="http://www.w3.org/1999/02/22-rdf-syntax-ns#"
   xmlns:svg="http://www.w3.org/2000/svg"
   xmlns="http://www.w3.org/2000/svg"
   xmlns:sodipodi="http://sodipodi.sourceforge.net/DTD/sodipodi-0.dtd"
   xmlns:inkscape="http://www.inkscape.org/namespaces/inkscape"
   viewBox="0 0 512 512"
   style="height: 512px; width: 512px;"
   version="1.1"
   id="svg5"
   sodipodi:docname="battered-axe.svg"
   inkscape:export-filename="/Users/brett/Downloads/battered-axe-64.png"
   inkscape:export-xdpi="12"
   inkscape:export-ydpi="12"
   inkscape:version="0.92.2 5c3e80d, 2017-08-06">
  <metadata
     id="metadata11">
    <rdf:RDF>
      <cc:Work
         rdf:about="">
        <dc:format>image/svg+xml</dc:format>
        <dc:type
           rdf:resource="http://purl.org/dc/dcmitype/StillImage" />
      </cc:Work>
    </rdf:RDF>
  </metadata>
  <defs
     id="defs9" />
  <sodipodi:namedview
     pagecolor="#ffffff"
     bordercolor="#666666"
     borderopacity="1"
     objecttolerance="10"
     gridtolerance="10"
     guidetolerance="10"
     inkscape:pageopacity="0"
     inkscape:pageshadow="2"
     inkscape:window-width="1571"
     inkscape:window-height="952"
     id="namedview7"
     showgrid="false"
     inkscape:snap-midpoints="true"
     inkscape:zoom="1.4225"
     inkscape:cx="120.20276"
     inkscape:cy="210.39946"
     inkscape:window-x="5"
     inkscape:window-y="0"
     inkscape:window-maximized="0"
     inkscape:current-layer="svg5" />
  <path
     style="fill:#474b4e;fill-opacity:1"
     d="M 7.9706017,72.69203 C 75.351428,80.956196 128.95547,103.75012 154.03827,170.24079 l 0.0485,0.18172 c 58.3263,15.56647 108.22372,46.09846 131.76893,88.86167 3.61307,6.56038 6.53158,13.4031 8.72123,20.47023 29.80597,-11.38527 56.40097,-36.78614 72.78272,-67.77076 18.15196,-34.33502 23.56421,-74.54913 8.92149,-109.05505 -14.19074,5.78704 -29.56506,8.87643 -45.5145,9.79993 C 279.50673,115.69874 221.40953,97.540709 167.11125,75.957661 161.39486,73.130856 155.42733,70.719202 149.21343,68.686235 109.73922,55.772893 60.713228,58.560714 7.9678983,72.69377 Z M 214.83186,44.083574 205.60025,70.368551 c 21.96711,7.683285 43.96528,14.199756 65.13165,18.492805 l 7.99687,-22.071862 C 261.88638,51.866122 236.5588,44.584294 214.83273,44.083324 Z M 451.58255,2.7754681 c -8.16712,34.7622959 -22.15268,60.4171849 -40.89422,78.1210989 -5.53669,5.231261 -11.44525,9.727721 -17.68358,13.569208 17.83777,40.800495 11.30224,87.563425 -9.14043,126.230905 -18.73976,35.44493 -49.30154,64.9193 -85.35939,77.58008 3.81836,31.56743 -6.3415,66.77465 -34.33961,102.69919 41.72656,-1.69332 78.40128,-11.63832 110.06412,-27.51836 0,0 25.76679,-11.9066 48.32208,-34.46194 22.51193,-23.37603 51.03734,-59.54643 62.80902,-87.13107 l -40.85787,-40.78391 -16.19666,-16.13783 22.8563,0.1836 49.73395,0.39126 c 6.60441,-26.47654 4.93471,-63.98449 -4.85235,-101.062791 C 487.14836,60.75394 471.69077,27.599955 451.58063,2.7759608 Z M 162.82964,192.3136 51.720913,508.89668 118.56084,508.9658 223.01681,220.60495 c -17.35116,-11.51352 -37.80965,-21.12394 -60.18356,-28.29341 z"
     id="path2"
     inkscape:connector-curvature="0"
     sodipodi:nodetypes="cccccccccccccccccccccccccccccccscccccccc"
     inkscape:export-xdpi="12"
     inkscape:export-ydpi="12" />
</svg>
