<?xml version="1.0" encoding="UTF-8" standalone="no"?>
<svg
   xmlns:dc="http://purl.org/dc/elements/1.1/"
   xmlns:cc="http://creativecommons.org/ns#"
   xmlns:rdf="http://www.w3.org/1999/02/22-rdf-syntax-ns#"
   xmlns:svg="http://www.w3.org/2000/svg"
   xmlns="http://www.w3.org/2000/svg"
   xmlns:sodipodi="http://sodipodi.sourceforge.net/DTD/sodipodi-0.dtd"
   xmlns:inkscape="http://www.inkscape.org/namespaces/inkscape"
   height="1000"
   width="700"
   version="1.1"
   id="svg4"
   sodipodi:docname="lamp.svg"
   inkscape:version="0.92.2 5c3e80d, 2017-08-06">
  <metadata
     id="metadata10">
    <rdf:RDF>
      <cc:Work
         rdf:about="">
        <dc:format>image/svg+xml</dc:format>
        <dc:type
           rdf:resource="http://purl.org/dc/dcmitype/StillImage" />
      </cc:Work>
    </rdf:RDF>
  </metadata>
  <defs
     id="defs8" />
  <sodipodi:namedview
     pagecolor="#ffffff"
     bordercolor="#666666"
     borderopacity="1"
     objecttolerance="10"
     gridtolerance="10"
     guidetolerance="10"
     inkscape:pageopacity="0"
     inkscape:pageshadow="2"
     inkscape:window-width="1421"
     inkscape:window-height="923"
     id="namedview6"
     showgrid="false"
     showguides="true"
     inkscape:guide-bbox="true"
     inkscape:zoom="0.6675088"
     inkscape:cx="350"
     inkscape:cy="729.6225"
     inkscape:window-x="0"
     inkscape:window-y="0"
     inkscape:window-maximized="0"
     inkscape:current-layer="svg4">
    <sodipodi:guide
       position="322.0339,574.15254"
       orientation="0,1"
       id="guide842"
       inkscape:locked="false" />
  </sodipodi:namedview>
  <path
     d="m 208.947,960 c 0,-34.66667 0,-69.33333 0,-104 94,0 188,0 282,0 0,34.66667 0,69.33333 0,104 -84.54623,53.5695 -197.51741,53.9754 -282,0 z m 276,-164 c -90,0 -180,0 -270,0 C 215.45915,688.51567 149.76944,595.58962 80.572,519.125 26.104036,449.08007 -12.800086,360.07436 3.1325469,269.79883 17.464877,147.35747 111.71003,35.936769 234.47825,12.09375 336.31362,-8.2735639 448.01267,-6.4637754 542.52122,40.648438 679.46952,114.84308 743.09691,304.9063 666.2595,443.34375 618.36818,537.11527 529.93026,606.42099 498.447,709.375 c -9.08631,27.91397 -13.5307,57.28285 -13.5,86.625 z m -378,-496 c -1.46987,44.6829 12.539,88.84717 39.27022,124.84064 C 209.17852,513.42411 278.99857,601.66999 308.947,708 c 27.33333,0 54.66667,0 82,0 C 418.68941,598.74634 494.25428,512.12263 555.5095,420.5625 583.63853,380.5004 601.30314,331.36259 590.98118,282.05566 584.18833,210.1015 535.9003,142.77161 465.63743,121.27441 387.6063,97.100186 300.23548,96.812439 223.24436,125.10254 150.59914,151.84063 110.4912,225.51549 106.947,300 Z"
     id="path2"
     inkscape:connector-curvature="0" />
</svg>
