<svg height="1000" width="700" xmlns="http://www.w3.org/2000/svg"><path d="M100 650q20 0 35 15t15 35 -15 35 -35 15l-50 0q-20 0 -35 -15t-15 -35 14 -35 36 -15l50 0zm0 -200q20 0 35 15t15 35 -15 35 -35 15l-50 0q-20 0 -35 -15t-15 -35 14 -35 36 -15l50 0zm0 -200q20 0 35 15t15 35 -15 35 -35 15l-50 0q-20 0 -35 -15t-15 -35 14 -35 36 -15l50 0zm200 100q-20 0 -35 -15t-15 -35 15 -35 35 -15l350 0q22 0 36 15t14 35 -15 35 -35 15l-350 0zm350 100q22 0 36 15t14 35 -15 35 -35 15l-350 0q-20 0 -35 -15t-15 -35 15 -35 35 -15l350 0zm0 200q22 0 36 15t14 35 -15 35 -35 15l-350 0q-20 0 -35 -15t-15 -35 15 -35 35 -15l350 0z"/></svg>